<svg width="25" height="25" viewBox="0 0 25 25" fill="none" xmlns="http://www.w3.org/2000/svg">
<mask id="mask0_183_9056" style="mask-type:alpha" maskUnits="userSpaceOnUse" x="0" y="0" width="25" height="25">
<rect x="0.90332" y="0.178711" width="23.1933" height="24" fill="#D9D9D9"/>
</mask>
<g mask="url(#mask0_183_9056)">
<path d="M11.1469 16.7787L17.9599 9.72871L16.6069 8.32871L11.1469 13.9787L8.39266 11.1287L7.03972 12.5287L11.1469 16.7787ZM12.4998 22.1787C11.163 22.1787 9.90667 21.9162 8.7309 21.3912C7.55513 20.8662 6.53237 20.1537 5.66262 19.2537C4.79287 18.3537 4.10432 17.2954 3.59697 16.0787C3.08961 14.862 2.83594 13.562 2.83594 12.1787C2.83594 10.7954 3.08961 9.49538 3.59697 8.27871C4.10432 7.06204 4.79287 6.00371 5.66262 5.10371C6.53237 4.20371 7.55513 3.49121 8.7309 2.96621C9.90667 2.44121 11.163 2.17871 12.4998 2.17871C13.8366 2.17871 15.0929 2.44121 16.2687 2.96621C17.4445 3.49121 18.4672 4.20371 19.337 5.10371C20.2067 6.00371 20.8953 7.06204 21.4026 8.27871C21.91 9.49538 22.1637 10.7954 22.1637 12.1787C22.1637 13.562 21.91 14.862 21.4026 16.0787C20.8953 17.2954 20.2067 18.3537 19.337 19.2537C18.4672 20.1537 17.4445 20.8662 16.2687 21.3912C15.0929 21.9162 13.8366 22.1787 12.4998 22.1787Z" fill="#604C3F"/>
</g>
</svg>
