<svg width="33" height="37" viewBox="0 0 33 37" fill="none" xmlns="http://www.w3.org/2000/svg">
<rect x="6.56006" y="0.125977" width="32" height="3" rx="1.5" transform="rotate(45 6.56006 0.125977)" fill="#604C3F"/>
<rect x="3.81299" y="22.627" width="32" height="3" rx="1.5" transform="rotate(-45 3.81299 22.627)" fill="#604C3F"/>
<path d="M32.207 28.9541V30.0241H29.002V32.0291H31.527V33.0641H29.002V35.1091H32.207V36.1841H27.647V28.9541H32.207Z" fill="#604C3F"/>
<path d="M25.7604 30.269C25.7238 30.3424 25.6804 30.394 25.6304 30.424C25.5838 30.454 25.5271 30.469 25.4604 30.469C25.3938 30.469 25.3188 30.444 25.2354 30.394C25.1521 30.3407 25.0538 30.2824 24.9404 30.219C24.8271 30.1557 24.6938 30.099 24.5404 30.049C24.3904 29.9957 24.2121 29.969 24.0054 29.969C23.8188 29.969 23.6554 29.9924 23.5154 30.039C23.3788 30.0824 23.2621 30.144 23.1654 30.224C23.0721 30.304 23.0021 30.4007 22.9554 30.514C22.9088 30.624 22.8854 30.7457 22.8854 30.879C22.8854 31.049 22.9321 31.1907 23.0254 31.304C23.1221 31.4174 23.2488 31.514 23.4054 31.594C23.5621 31.674 23.7404 31.7457 23.9404 31.809C24.1404 31.8724 24.3438 31.9407 24.5504 32.014C24.7604 32.084 24.9654 32.1674 25.1654 32.264C25.3654 32.3574 25.5438 32.4774 25.7004 32.624C25.8571 32.7674 25.9821 32.944 26.0754 33.154C26.1721 33.364 26.2204 33.619 26.2204 33.919C26.2204 34.2457 26.1638 34.5524 26.0504 34.839C25.9404 35.1224 25.7771 35.3707 25.5604 35.584C25.3471 35.794 25.0854 35.9607 24.7754 36.084C24.4654 36.204 24.1104 36.264 23.7104 36.264C23.4804 36.264 23.2538 36.2407 23.0304 36.194C22.8071 36.1507 22.5921 36.0874 22.3854 36.004C22.1821 35.9207 21.9904 35.8207 21.8104 35.704C21.6338 35.5874 21.4754 35.4574 21.3354 35.314L21.7254 34.669C21.7621 34.6224 21.8054 34.584 21.8554 34.554C21.9088 34.5207 21.9671 34.504 22.0304 34.504C22.1138 34.504 22.2038 34.539 22.3004 34.609C22.3971 34.6757 22.5104 34.7507 22.6404 34.834C22.7738 34.9174 22.9288 34.994 23.1054 35.064C23.2854 35.1307 23.5005 35.164 23.7505 35.164C24.1338 35.164 24.4304 35.074 24.6404 34.894C24.8504 34.7107 24.9555 34.449 24.9555 34.109C24.9555 33.919 24.9071 33.764 24.8104 33.644C24.7171 33.524 24.5921 33.424 24.4354 33.344C24.2788 33.2607 24.1004 33.1907 23.9004 33.134C23.7004 33.0774 23.4971 33.0157 23.2904 32.949C23.0838 32.8824 22.8804 32.8024 22.6804 32.709C22.4804 32.6157 22.3021 32.494 22.1454 32.344C21.9888 32.194 21.8621 32.0074 21.7654 31.784C21.6721 31.5574 21.6254 31.279 21.6254 30.949C21.6254 30.6857 21.6771 30.429 21.7804 30.179C21.8871 29.929 22.0404 29.7074 22.2404 29.514C22.4438 29.3207 22.6921 29.1657 22.9854 29.049C23.2788 28.9324 23.6138 28.874 23.9904 28.874C24.4171 28.874 24.8104 28.9407 25.1704 29.074C25.5304 29.2074 25.8371 29.394 26.0904 29.634L25.7604 30.269Z" fill="#604C3F"/>
<path d="M20.4228 32.569C20.4228 33.099 20.3344 33.5907 20.1578 34.044C19.9811 34.494 19.7328 34.884 19.4128 35.214C19.0928 35.544 18.7078 35.8024 18.2578 35.989C17.8078 36.1724 17.3094 36.264 16.7628 36.264C16.2161 36.264 15.7161 36.1724 15.2628 35.989C14.8128 35.8024 14.4261 35.544 14.1028 35.214C13.7828 34.884 13.5344 34.494 13.3578 34.044C13.1811 33.5907 13.0928 33.099 13.0928 32.569C13.0928 32.039 13.1811 31.549 13.3578 31.099C13.5344 30.6457 13.7828 30.254 14.1028 29.924C14.4261 29.594 14.8128 29.3374 15.2628 29.154C15.7161 28.9674 16.2161 28.874 16.7628 28.874C17.3094 28.874 17.8078 28.9674 18.2578 29.154C18.7078 29.3407 19.0928 29.599 19.4128 29.929C19.7328 30.2557 19.9811 30.6457 20.1578 31.099C20.3344 31.549 20.4228 32.039 20.4228 32.569ZM19.0428 32.569C19.0428 32.1724 18.9894 31.8174 18.8828 31.504C18.7794 31.1874 18.6294 30.919 18.4328 30.699C18.2361 30.479 17.9961 30.3107 17.7128 30.194C17.4328 30.0774 17.1161 30.019 16.7628 30.019C16.4094 30.019 16.0911 30.0774 15.8078 30.194C15.5244 30.3107 15.2828 30.479 15.0828 30.699C14.8861 30.919 14.7344 31.1874 14.6278 31.504C14.5211 31.8174 14.4678 32.1724 14.4678 32.569C14.4678 32.9657 14.5211 33.3224 14.6278 33.639C14.7344 33.9524 14.8861 34.219 15.0828 34.439C15.2828 34.6557 15.5244 34.8224 15.8078 34.939C16.0911 35.0557 16.4094 35.114 16.7628 35.114C17.1161 35.114 17.4328 35.0557 17.7128 34.939C17.9961 34.8224 18.2361 34.6557 18.4328 34.439C18.6294 34.219 18.7794 33.9524 18.8828 33.639C18.9894 33.3224 19.0428 32.9657 19.0428 32.569Z" fill="#604C3F"/>
<path d="M9.66678 35.0741H12.5618V36.1841H8.32178V28.9541H9.66678V35.0741Z" fill="#604C3F"/>
<path d="M6.18297 34.479C6.2563 34.479 6.31964 34.5074 6.37297 34.564L6.90297 35.139C6.60964 35.5024 6.24797 35.7807 5.81797 35.974C5.3913 36.1674 4.87797 36.264 4.27797 36.264C3.7413 36.264 3.25797 36.1724 2.82797 35.989C2.4013 35.8057 2.0363 35.5507 1.73297 35.224C1.42964 34.8974 1.1963 34.5074 1.03297 34.054C0.872969 33.6007 0.792969 33.1057 0.792969 32.569C0.792969 32.0257 0.882969 31.529 1.06297 31.079C1.24297 30.6257 1.4963 30.2357 1.82297 29.909C2.14964 29.5824 2.53964 29.329 2.99297 29.149C3.44964 28.9657 3.95297 28.874 4.50297 28.874C5.03964 28.874 5.50797 28.9607 5.90797 29.134C6.3113 29.304 6.6563 29.5307 6.94297 29.814L6.49297 30.439C6.4663 30.479 6.4313 30.514 6.38797 30.544C6.34797 30.574 6.2913 30.589 6.21797 30.589C6.1413 30.589 6.06297 30.559 5.98297 30.499C5.90297 30.439 5.8013 30.374 5.67797 30.304C5.55464 30.234 5.39797 30.169 5.20797 30.109C5.0213 30.049 4.78297 30.019 4.49297 30.019C4.15297 30.019 3.83964 30.079 3.55297 30.199C3.26964 30.3157 3.02464 30.484 2.81797 30.704C2.61464 30.924 2.45464 31.1924 2.33797 31.509C2.22464 31.8224 2.16797 32.1757 2.16797 32.569C2.16797 32.9757 2.22464 33.3374 2.33797 33.654C2.45464 33.9707 2.6113 34.2374 2.80797 34.454C3.00464 34.6707 3.2363 34.8374 3.50297 34.954C3.76964 35.0674 4.0563 35.124 4.36297 35.124C4.5463 35.124 4.7113 35.114 4.85797 35.094C5.00797 35.074 5.14464 35.0424 5.26797 34.999C5.39464 34.9557 5.51297 34.9007 5.62297 34.834C5.7363 34.764 5.84797 34.679 5.95797 34.579C5.9913 34.549 6.0263 34.5257 6.06297 34.509C6.09964 34.489 6.13964 34.479 6.18297 34.479Z" fill="#604C3F"/>
</svg>
