<svg width="33" height="36" viewBox="0 0 33 36" fill="none" xmlns="http://www.w3.org/2000/svg">
<rect x="12" width="21" height="3" rx="1.5" fill="#604C3F"/>
<rect x="7" y="10" width="26" height="3" rx="1.5" fill="#604C3F"/>
<rect x="1" y="20" width="32" height="3" rx="1.5" fill="#604C3F"/>
<path d="M30.0004 34.145C30.2604 34.145 30.492 34.1017 30.6954 34.015C30.902 33.9283 31.0754 33.8067 31.2154 33.65C31.3587 33.4933 31.467 33.3033 31.5404 33.08C31.617 32.8567 31.6554 32.6067 31.6554 32.33V28H33.0004V32.33C33.0004 32.76 32.9304 33.1583 32.7904 33.525C32.6537 33.8883 32.4554 34.2033 32.1954 34.47C31.9354 34.7333 31.6204 34.94 31.2504 35.09C30.8804 35.2367 30.4637 35.31 30.0004 35.31C29.537 35.31 29.1204 35.2367 28.7504 35.09C28.3804 34.94 28.0654 34.7333 27.8054 34.47C27.5487 34.2033 27.3504 33.8883 27.2104 33.525C27.0737 33.1583 27.0054 32.76 27.0054 32.33V28H28.3504V32.325C28.3504 32.6017 28.387 32.8517 28.4604 33.075C28.537 33.2983 28.6454 33.49 28.7854 33.65C28.9254 33.8067 29.097 33.9283 29.3004 34.015C29.507 34.1017 29.7404 34.145 30.0004 34.145Z" fill="#604C3F"/>
<path d="M19.8363 28C19.8963 28 19.9463 28.0033 19.9863 28.01C20.0263 28.0133 20.0613 28.0233 20.0913 28.04C20.1247 28.0533 20.1563 28.075 20.1863 28.105C20.2163 28.1317 20.2497 28.1683 20.2863 28.215L24.0813 33.05C24.068 32.9333 24.058 32.82 24.0513 32.71C24.048 32.5967 24.0463 32.4917 24.0463 32.395V28H25.2313V35.23H24.5363C24.4297 35.23 24.3413 35.2133 24.2713 35.18C24.2013 35.1467 24.133 35.0867 24.0663 35L20.2863 30.185C20.2963 30.2917 20.303 30.3983 20.3063 30.505C20.313 30.6083 20.3163 30.7033 20.3163 30.79V35.23H19.1313V28H19.8363Z" fill="#604C3F"/>
<path d="M17.5688 28V29.07H14.3638V31.075H16.8888V32.11H14.3638V34.155H17.5688V35.23H13.0088V28H17.5688Z" fill="#604C3F"/>
<path d="M6.94201 32.23C6.99868 32.3367 7.05035 32.4483 7.09701 32.565C7.14701 32.6783 7.19535 32.7933 7.24201 32.91C7.28868 32.79 7.33701 32.6717 7.38701 32.555C7.43701 32.4383 7.49035 32.3267 7.54701 32.22L9.68701 28.215C9.71368 28.165 9.74035 28.125 9.76701 28.095C9.79701 28.065 9.82868 28.0433 9.86201 28.03C9.89868 28.0167 9.93868 28.0083 9.98201 28.005C10.0253 28.0017 10.077 28 10.137 28H11.152V35.23H9.96701V30.56C9.96701 30.4733 9.96868 30.3783 9.97201 30.275C9.97868 30.1717 9.98701 30.0667 9.99701 29.96L7.81201 34.06C7.76201 34.1533 7.69701 34.2267 7.61701 34.28C7.53701 34.33 7.44368 34.355 7.33701 34.355H7.15201C7.04535 34.355 6.95201 34.33 6.87201 34.28C6.79201 34.2267 6.72701 34.1533 6.67701 34.06L4.46201 29.945C4.47535 30.055 4.48368 30.1633 4.48701 30.27C4.49368 30.3733 4.49701 30.47 4.49701 30.56V35.23H3.31201V28H4.32701C4.38701 28 4.43868 28.0017 4.48201 28.005C4.52535 28.0083 4.56368 28.0167 4.59701 28.03C4.63368 28.0433 4.66701 28.065 4.69701 28.095C4.72701 28.125 4.75535 28.165 4.78201 28.215L6.94201 32.23Z" fill="#604C3F"/>
</svg>
