<svg width="20" height="20" viewBox="0 0 20 20" fill="none" xmlns="http://www.w3.org/2000/svg">
<mask id="mask0_606_998" style="mask-type:alpha" maskUnits="userSpaceOnUse" x="0" y="0" width="20" height="20">
<rect width="20" height="20" fill="#D9D9D9"/>
</mask>
<g mask="url(#mask0_606_998)">
<path d="M3.75678 15.5832C3.38164 15.5832 3.06456 15.4536 2.80553 15.1944C2.54651 14.9353 2.41699 14.618 2.41699 14.2425V5.75046C2.41699 5.37505 2.54651 5.05887 2.80553 4.80192C3.06456 4.54498 3.38164 4.4165 3.75678 4.4165H16.2439C16.619 4.4165 16.9361 4.54609 17.1951 4.80525C17.4541 5.06442 17.5837 5.38171 17.5837 5.75713V14.2492C17.5837 14.6246 17.4541 14.9408 17.1951 15.1978C16.9361 15.4547 16.619 15.5832 16.2439 15.5832H3.75678ZM10.0003 10.6313L3.50033 6.80588V14.2434C3.50033 14.3182 3.52435 14.3797 3.57241 14.4278C3.62046 14.4758 3.68192 14.4998 3.75678 14.4998H16.2439C16.3187 14.4998 16.3802 14.4758 16.4282 14.4278C16.4763 14.3797 16.5003 14.3182 16.5003 14.2434V6.80588L10.0003 10.6313ZM10.0003 9.229L16.3722 5.49984H3.62845L10.0003 9.229ZM3.50033 6.80588V5.49984V14.2434C3.50033 14.3182 3.52435 14.3797 3.57241 14.4278C3.62046 14.4758 3.68192 14.4998 3.75678 14.4998H3.50033V6.80588Z" fill="#604C3F"/>
</g>
</svg>
