<svg width="24" height="25" viewBox="0 0 24 25" fill="none" xmlns="http://www.w3.org/2000/svg">
<mask id="mask0_488_4532" style="mask-type:alpha" maskUnits="userSpaceOnUse" x="0" y="0" width="24" height="25">
<rect y="0.51416" width="24" height="24" fill="#D9D9D9"/>
</mask>
<g mask="url(#mask0_488_4532)">
<path d="M20.0591 1.51416H3.0713C2.47963 1.51416 2 1.99379 2 2.58546V22.4429C2 23.0345 2.47963 23.5142 3.0713 23.5142H20.0591C20.6508 23.5142 21.1304 23.0345 21.1304 22.4429V2.58546C21.1304 1.99379 20.6508 1.51416 20.0591 1.51416Z" stroke="#604C3F" stroke-width="1.5" stroke-linecap="round" stroke-linejoin="round"/>
<path d="M18.2609 4.38379H4.86963V10.1229H18.2609V4.38379Z" stroke="#604C3F" stroke-width="1.5" stroke-linecap="round" stroke-linejoin="round"/>
<path d="M5.82617 12.9924H7.73922V14.9055" stroke="#604C3F" stroke-width="1.5" stroke-linecap="round" stroke-linejoin="round"/>
<path d="M10.6089 12.9924H12.5219V14.9055" stroke="#604C3F" stroke-width="1.5" stroke-linecap="round" stroke-linejoin="round"/>
<path d="M15.3911 12.9924H17.3042V14.9055" stroke="#604C3F" stroke-width="1.5" stroke-linecap="round" stroke-linejoin="round"/>
<path d="M5.82617 18.7314H7.73922V20.6445" stroke="#604C3F" stroke-width="1.5" stroke-linecap="round" stroke-linejoin="round"/>
<path d="M10.6089 18.7314H12.5219V20.6445" stroke="#604C3F" stroke-width="1.5" stroke-linecap="round" stroke-linejoin="round"/>
<path d="M15.3911 18.7314H17.3042V20.6445" stroke="#604C3F" stroke-width="1.5" stroke-linecap="round" stroke-linejoin="round"/>
</g>
</svg>
