<svg width="25" height="25" viewBox="0 0 25 25" fill="none" xmlns="http://www.w3.org/2000/svg">
<mask id="mask0_606_950" style="mask-type:alpha" maskUnits="userSpaceOnUse" x="0" y="0" width="25" height="25">
<rect x="0.5" y="0.5" width="24" height="24" fill="#D9D9D9"/>
</mask>
<g mask="url(#mask0_606_950)">
<path d="M23.1444 5.60921L12.4991 9.45759L1.79395 5.58789" stroke="#604C3F" stroke-width="1.5" stroke-miterlimit="10" stroke-linecap="round"/>
<path d="M23.0166 5.44837L12.7955 1.75136C12.6036 1.68314 12.3947 1.68314 12.2049 1.75136L1.98367 5.44837C1.81311 5.5102 1.7002 5.67224 1.7002 5.85347V18.7525C1.7002 18.8271 1.74706 18.8953 1.81742 18.9188L12.2049 22.6755C12.3968 22.7437 12.6057 22.7437 12.7955 22.6755L23.1829 18.9188C23.2532 18.8932 23.3002 18.8271 23.3002 18.7525V5.85347C23.3002 5.67224 23.1872 5.5102 23.0166 5.44837Z" stroke="#604C3F" stroke-width="1.5" stroke-miterlimit="10" stroke-linecap="round"/>
<path d="M12.499 9.45654V22.5986" stroke="#604C3F" stroke-width="1.5" stroke-miterlimit="10" stroke-linecap="round"/>
<path d="M7.00684 7.2612L17.4305 3.4917" stroke="#604C3F" stroke-width="1.5" stroke-miterlimit="10" stroke-linecap="round"/>
</g>
</svg>
