<svg width="24" height="24" viewBox="0 0 24 24" fill="none" xmlns="http://www.w3.org/2000/svg">
<mask id="mask0_606_962" style="mask-type:alpha" maskUnits="userSpaceOnUse" x="0" y="0" width="24" height="24">
<rect width="24" height="24" fill="#D9D9D9"/>
</mask>
<g mask="url(#mask0_606_962)">
<path d="M16.3383 16.6963H6.1875" stroke="#604C3F" stroke-width="1.5" stroke-miterlimit="10" stroke-linecap="round"/>
<path d="M20.0663 16.6964H22.3648C22.6053 16.6964 22.8006 16.5011 22.8006 16.2605V5.27183C22.8006 5.0114 22.5891 4.7998 22.3286 4.7998H9.8214C9.54651 4.7998 9.32227 5.02407 9.32227 5.29896V16.6964" stroke="#604C3F" stroke-width="1.5" stroke-miterlimit="10" stroke-linecap="round"/>
<path d="M2.71384 16.6972H1.53835C1.35208 16.6972 1.2002 16.5452 1.2002 16.359V12.3151C1.2002 8.83725 4.01957 6.01953 7.49541 6.01953H9.13021" stroke="#604C3F" stroke-width="1.5" stroke-miterlimit="10" stroke-linecap="round"/>
<path d="M4.45278 18.4335C5.4126 18.4335 6.19067 17.6554 6.19067 16.6955C6.19067 15.7356 5.4126 14.9575 4.45278 14.9575C3.49295 14.9575 2.71484 15.7356 2.71484 16.6955C2.71484 17.6554 3.49295 18.4335 4.45278 18.4335Z" stroke="#604C3F" stroke-width="1.5" stroke-miterlimit="10" stroke-linecap="round"/>
<path d="M18.0758 18.4335C19.0357 18.4335 19.8137 17.6554 19.8137 16.6955C19.8137 15.7356 19.0357 14.9575 18.0758 14.9575C17.116 14.9575 16.3379 15.7356 16.3379 16.6955C16.3379 17.6554 17.116 18.4335 18.0758 18.4335Z" stroke="#604C3F" stroke-width="1.5" stroke-miterlimit="10" stroke-linecap="round"/>
<path d="M1.20215 12.3154H6.84449" stroke="#604C3F" stroke-width="1.5" stroke-miterlimit="10" stroke-linecap="round"/>
<path d="M6.84375 7.73486V12.3141" stroke="#604C3F" stroke-width="1.5" stroke-miterlimit="10" stroke-linecap="round"/>
<path d="M3.22363 7.69287H6.84415" stroke="#604C3F" stroke-width="1.5" stroke-miterlimit="10" stroke-linecap="round"/>
</g>
</svg>
