<svg width="24" height="24" viewBox="0 0 24 24" fill="none" xmlns="http://www.w3.org/2000/svg">
<mask id="mask0_606_975" style="mask-type:alpha" maskUnits="userSpaceOnUse" x="0" y="0" width="24" height="24">
<rect width="24" height="24" fill="#D9D9D9"/>
</mask>
<g mask="url(#mask0_606_975)">
<path d="M12.0013 1.2002C6.03673 1.2002 1.2002 5.20504 1.2002 10.1464C1.2002 12.4923 2.29858 14.6195 4.08202 16.2172L2.33284 21.422C2.29402 21.5397 2.41731 21.6432 2.52007 21.582L7.83844 18.4055C9.11951 18.8478 10.5239 19.0949 11.999 19.0949C17.9636 19.0949 22.8002 15.0901 22.8002 10.1487C22.8002 5.20739 17.9659 1.20255 11.999 1.20255L12.0013 1.2002Z" stroke="#604C3F" stroke-width="1.5" stroke-miterlimit="10" stroke-linecap="round"/>
<path d="M7.20736 12.007C7.87135 11.343 7.87135 10.2664 7.20736 9.60242C6.54337 8.93843 5.46683 8.93844 4.80284 9.60243C4.13885 10.2664 4.13885 11.343 4.80284 12.0069C5.46683 12.6709 6.54337 12.6709 7.20736 12.007Z" fill="#604C3F"/>
<path d="M13.8692 11.0824C14.0197 10.1555 13.3903 9.28213 12.4634 9.13167C11.5365 8.98121 10.6631 9.61065 10.5127 10.5375C10.3622 11.4644 10.9916 12.3378 11.9185 12.4882C12.8454 12.6387 13.7188 12.0093 13.8692 11.0824Z" fill="#604C3F"/>
<path d="M20.0097 11.1874C20.2254 10.2735 19.6594 9.35773 18.7455 9.14202C17.8316 8.92632 16.9158 9.49233 16.7001 10.4062C16.4844 11.3202 17.0504 12.2359 17.9644 12.4516C18.8783 12.6673 19.794 12.1013 20.0097 11.1874Z" fill="#604C3F"/>
</g>
</svg>
