<svg width="16" height="16" viewBox="0 0 16 16" fill="none" xmlns="http://www.w3.org/2000/svg">
<mask id="mask0_606_992" style="mask-type:alpha" maskUnits="userSpaceOnUse" x="0" y="0" width="16" height="16">
<rect width="16" height="16" fill="#D9D9D9"/>
</mask>
<g mask="url(#mask0_606_992)">
<path d="M11.7458 10.0339C11.4543 9.92811 11.1247 9.99056 10.8992 10.2022C10.6408 10.4468 10.384 10.7261 10.1307 10.9499C9.71788 11.3142 9.10726 11.3541 8.66317 11.0279C8.01959 10.5578 7.30315 9.90903 6.69253 9.30534C6.09058 8.69299 5.44006 7.97655 4.96995 7.3347C4.64555 6.89061 4.68372 6.27999 5.04801 5.86713C5.27179 5.61212 5.55108 5.35711 5.79568 5.09864C6.00905 4.87313 6.0715 4.54353 5.96394 4.2521L4.87628 1.27011C4.78433 1.01857 4.55708 0.83643 4.2882 0.810409C3.61513 0.744489 2.93686 0.98908 2.25337 1.45572C-0.395547 3.56688 0.679976 7.41276 4.63341 11.3662C8.58684 15.3196 12.4327 16.3952 14.5439 13.7462C15.0105 13.0628 15.2551 12.3845 15.1892 11.7114C15.1632 11.4443 14.981 11.217 14.7295 11.1233L11.7475 10.0357L11.7458 10.0339Z" fill="#604C3F"/>
</g>
</svg>
