<?xml version="1.0" encoding="UTF-8"?> <svg xmlns="http://www.w3.org/2000/svg" width="340" height="84" viewBox="0 0 340 84" fill="none"><path d="M152.869 73.1674C152.694 73.2982 152.503 73.3472 152.29 73.3091C152.077 73.271 151.913 73.1674 151.787 72.9931C151.661 72.8187 151.618 72.628 151.656 72.4155C151.694 72.2029 151.798 72.0395 151.973 71.9141C152.388 71.6253 152.798 71.2766 153.202 70.8679C153.606 70.4592 153.978 70.0342 154.305 69.5874C154.639 69.1406 154.901 68.7265 155.103 68.3505C155.201 68.1597 155.349 68.029 155.551 67.9527C155.747 67.8764 155.939 67.8873 156.124 67.9799C156.316 68.0726 156.447 68.2197 156.518 68.4213C156.589 68.6229 156.572 68.8191 156.474 69.0098C156.234 69.473 155.922 69.9579 155.545 70.4701C155.163 70.9824 154.742 71.4728 154.283 71.9414C153.825 72.41 153.355 72.8187 152.874 73.1674H152.869ZM162.439 73.102C162.259 73.211 162.062 73.2383 161.855 73.1838C161.647 73.1293 161.489 73.0149 161.385 72.8296C161.237 72.5789 161.046 72.2956 160.817 71.9741C160.587 71.6526 160.331 71.3202 160.052 70.9824C159.773 70.6445 159.489 70.3176 159.2 70.0124C158.91 69.7073 158.643 69.4348 158.391 69.2114C158.233 69.0697 158.151 68.8954 158.14 68.6774C158.135 68.4649 158.2 68.2796 158.337 68.1216C158.484 67.9745 158.664 67.8982 158.877 67.8982C159.091 67.8982 159.271 67.969 159.429 68.1107C159.702 68.3668 159.997 68.6611 160.309 68.988C160.626 69.3204 160.931 69.6637 161.232 70.0233C161.532 70.383 161.811 70.7372 162.068 71.0913C162.324 71.4401 162.537 71.7616 162.701 72.0504C162.811 72.2302 162.838 72.4264 162.789 72.6334C162.74 72.8405 162.619 72.9985 162.428 73.102H162.439Z" fill="white"></path><path d="M167.491 71.3086C167.284 71.3086 167.104 71.2323 166.951 71.0797C166.798 70.9272 166.721 70.7474 166.721 70.5403C166.721 70.3332 166.798 70.1425 166.951 69.9954C167.104 69.8483 167.284 69.772 167.491 69.772H175.226C175.439 69.772 175.625 69.8483 175.773 69.9954C175.92 70.1425 175.997 70.3278 175.997 70.5403C175.997 70.7528 175.92 70.9272 175.773 71.0797C175.625 71.2323 175.439 71.3086 175.226 71.3086H167.491Z" fill="white"></path><path d="M182.563 75.7283C182.355 75.7283 182.18 75.652 182.027 75.5049C181.88 75.3578 181.803 75.178 181.803 74.9709V66.4159C181.803 66.2034 181.88 66.0235 182.027 65.8764C182.175 65.7293 182.355 65.6584 182.563 65.6584C182.77 65.6584 182.961 65.7293 183.109 65.8764C183.256 66.0181 183.333 66.1979 183.333 66.4159V69.402C183.442 69.2385 183.589 69.1295 183.781 69.075C183.972 69.0205 184.158 69.0423 184.338 69.1295C184.824 69.3856 185.327 69.6799 185.835 70.0068C186.343 70.3392 186.785 70.6607 187.157 70.9713C187.32 71.1021 187.413 71.2819 187.435 71.4998C187.457 71.7178 187.397 71.9085 187.255 72.0774C187.124 72.2355 186.949 72.3226 186.736 72.3444C186.523 72.3662 186.332 72.3118 186.168 72.1755C185.938 71.9957 185.671 71.7995 185.365 71.5925C185.064 71.3854 184.758 71.1838 184.458 70.9931C184.158 70.7969 183.879 70.6334 183.633 70.4918C183.502 70.4155 183.404 70.3283 183.333 70.2193V74.9763C183.333 75.1834 183.256 75.3578 183.109 75.5103C182.961 75.6575 182.776 75.7338 182.563 75.7338V75.7283Z" fill="white"></path><path d="M194.117 71.6309C193.909 71.6145 193.74 71.5274 193.614 71.3693C193.488 71.2113 193.428 71.0206 193.434 70.8026C193.45 70.5901 193.456 70.3013 193.445 69.9417C193.434 69.582 193.423 69.2006 193.407 68.8028C193.39 68.405 193.368 68.0182 193.341 67.6531C193.314 67.288 193.281 66.9883 193.248 66.754C193.215 66.5306 193.265 66.3399 193.396 66.1709C193.527 66.0075 193.696 65.9094 193.904 65.8876C194.117 65.8658 194.308 65.9094 194.472 66.0293C194.636 66.1491 194.734 66.3181 194.756 66.5306C194.778 66.7594 194.805 67.0755 194.838 67.4678C194.865 67.8601 194.892 68.2743 194.914 68.7102C194.936 69.1461 194.952 69.5657 194.963 69.9689C194.974 70.3722 194.974 70.6937 194.958 70.9389C194.947 71.1623 194.86 71.3366 194.69 71.4565C194.521 71.5819 194.33 71.6363 194.111 71.6309H194.117ZM195.357 75.7286C195.176 75.8376 194.98 75.8539 194.767 75.7885C194.554 75.7231 194.401 75.5978 194.302 75.418C194.204 75.2273 194.182 75.0366 194.237 74.8349C194.291 74.6388 194.406 74.4862 194.592 74.3772C195.105 74.0993 195.537 73.7833 195.881 73.4454C196.231 73.1021 196.509 72.7044 196.717 72.2521C196.93 71.7998 197.083 71.2604 197.176 70.6446C197.269 70.0234 197.318 69.2932 197.318 68.4541C197.318 68.1054 197.307 67.7348 197.285 67.3425C197.263 66.9447 197.236 66.6178 197.192 66.3617C197.17 66.1491 197.225 65.9584 197.361 65.795C197.498 65.6315 197.667 65.5334 197.875 65.5116C198.088 65.4844 198.279 65.5388 198.438 65.6696C198.596 65.8004 198.694 65.9748 198.716 66.1927C198.749 66.3889 198.771 66.6287 198.782 66.9066C198.793 67.1845 198.804 67.4569 198.809 67.7294C198.809 68.0018 198.814 68.247 198.814 68.4595C198.814 69.6474 198.716 70.6937 198.52 71.5982C198.323 72.5027 197.973 73.2929 197.471 73.9631C196.968 74.6333 196.263 75.2273 195.351 75.7395L195.357 75.7286Z" fill="white"></path><path d="M204.528 71.3086C204.32 71.3086 204.14 71.2323 203.987 71.0797C203.834 70.9272 203.758 70.7474 203.758 70.5403C203.758 70.3332 203.834 70.1425 203.987 69.9954C204.14 69.8483 204.32 69.772 204.528 69.772H212.263C212.476 69.772 212.662 69.8483 212.809 69.9954C212.957 70.1425 213.033 70.3278 213.033 70.5403C213.033 70.7528 212.957 70.9272 212.809 71.0797C212.662 71.2323 212.476 71.3086 212.263 71.3086H204.528Z" fill="white"></path><path d="M219.396 75.4074C219.205 75.4891 219.014 75.4891 218.812 75.4128C218.615 75.3366 218.468 75.2003 218.375 75.0096C218.293 74.8135 218.288 74.6118 218.364 74.4102C218.441 74.2086 218.572 74.0669 218.763 73.9852C220.052 73.4076 221.144 72.7156 222.035 71.9037C222.925 71.0972 223.57 70.2145 223.98 69.2663C224.16 68.8522 224.193 68.5416 224.067 68.3345C223.941 68.122 223.635 68.0185 223.149 68.0185H218.495C218.288 68.0185 218.107 67.9422 217.96 67.7896C217.812 67.637 217.736 67.4572 217.736 67.2502C217.736 67.0431 217.812 66.8524 217.96 66.7053C218.107 66.5581 218.288 66.4818 218.495 66.4818H223.209C223.969 66.4818 224.559 66.6181 224.979 66.896C225.394 67.1739 225.646 67.5553 225.717 68.0457C225.793 68.5361 225.689 69.1137 225.416 69.7731C224.93 70.9283 224.171 71.9908 223.149 72.9608C222.128 73.9307 220.877 74.7481 219.396 75.4074ZM227.104 67.9258C226.755 67.9258 226.46 67.806 226.219 67.5608C225.973 67.3155 225.853 67.0213 225.853 66.678C225.853 66.3347 225.973 66.035 226.219 65.7953C226.465 65.5501 226.76 65.4302 227.104 65.4302C227.448 65.4302 227.738 65.5501 227.978 65.7953C228.224 66.0405 228.344 66.3347 228.344 66.678C228.344 67.0213 228.224 67.321 227.978 67.5608C227.732 67.806 227.443 67.9258 227.104 67.9258ZM227.104 67.212C227.252 67.212 227.377 67.163 227.481 67.0594C227.585 66.9559 227.634 66.8306 227.634 66.6835C227.634 66.5363 227.585 66.411 227.481 66.3075C227.377 66.2039 227.252 66.1549 227.104 66.1549C226.957 66.1549 226.826 66.2039 226.722 66.3075C226.613 66.411 226.558 66.5363 226.558 66.6835C226.558 66.8306 226.613 66.9559 226.722 67.0594C226.831 67.163 226.957 67.212 227.104 67.212Z" fill="white"></path><path d="M241.133 76.3498C240.876 76.3498 240.663 76.2899 240.499 76.17C240.335 76.0501 240.243 75.8757 240.226 75.6414C240.21 75.418 240.275 75.2328 240.417 75.0802C240.559 74.9276 240.756 74.8404 240.996 74.8241C241.27 74.7968 241.45 74.7478 241.537 74.677C241.625 74.6007 241.668 74.4644 241.668 74.2574V72.6118C241.302 72.906 240.887 73.2221 240.417 73.5599C239.948 73.8977 239.456 74.2138 238.948 74.5135C238.44 74.8132 237.932 75.0802 237.429 75.3091C237.233 75.4017 237.025 75.4289 236.818 75.4017C236.605 75.3744 236.441 75.2546 236.326 75.0475C236.217 74.8513 236.206 74.6497 236.282 74.4535C236.359 74.2574 236.517 74.1103 236.747 74.0231C237.194 73.8433 237.664 73.6198 238.156 73.3528C238.648 73.0913 239.123 72.8134 239.582 72.53C240.04 72.2467 240.445 71.9742 240.794 71.7181H236.998C236.823 71.7181 236.676 71.6582 236.555 71.5329C236.435 71.4075 236.375 71.2658 236.375 71.0969C236.375 70.928 236.435 70.7863 236.555 70.6665C236.676 70.5411 236.823 70.4812 236.998 70.4812H240.996C240.816 70.3831 240.636 70.285 240.456 70.1978C240.275 70.1052 240.117 70.0235 239.964 69.9472C239.822 69.8818 239.729 69.7619 239.68 69.5875C239.631 69.4132 239.658 69.2551 239.767 69.1189C239.784 69.0971 239.8 69.0699 239.822 69.0535C239.844 69.0317 239.86 69.0154 239.877 68.999H238.336C238.178 68.999 238.041 68.9391 237.921 68.8192C237.801 68.6993 237.741 68.5577 237.741 68.3942C237.741 68.2307 237.801 68.089 237.921 67.9692C238.041 67.8493 238.178 67.7893 238.336 67.7893H239.778C239.664 67.6586 239.603 67.4951 239.603 67.3044V66.972H236.921C236.757 66.972 236.61 66.9121 236.49 66.7922C236.37 66.6723 236.304 66.5252 236.304 66.3508C236.304 66.1764 236.364 66.0456 236.49 65.9258C236.615 65.8059 236.757 65.746 236.921 65.746H239.603V65.3155C239.603 65.103 239.669 64.9286 239.811 64.8033C239.948 64.6779 240.117 64.6125 240.314 64.6125C240.51 64.6125 240.669 64.6779 240.811 64.8033C240.953 64.934 241.024 65.103 241.024 65.3155V65.746H242.81V65.3155C242.81 65.103 242.881 64.9286 243.023 64.8033C243.165 64.6779 243.329 64.6125 243.52 64.6125C243.711 64.6125 243.886 64.6779 244.023 64.8033C244.159 64.934 244.23 65.103 244.23 65.3155V65.746H246.972C247.136 65.746 247.278 65.8059 247.399 65.9258C247.519 66.0456 247.579 66.1873 247.579 66.3508C247.579 66.5252 247.519 66.6723 247.399 66.7922C247.278 66.9121 247.136 66.972 246.972 66.972H244.23V67.3044C244.23 67.4951 244.17 67.6531 244.055 67.7893H244.476C244.848 67.7893 245.143 67.8711 245.356 68.0291C245.569 68.1871 245.705 68.3887 245.754 68.6231C245.803 68.8574 245.771 69.0917 245.656 69.326C245.541 69.5603 245.339 69.751 245.05 69.9036C244.886 69.9962 244.7 70.0889 244.503 70.1924C244.307 70.2959 244.105 70.394 243.908 70.4812H245.607C246.202 70.4812 246.645 70.6011 246.934 70.8463C247.224 71.0915 247.355 71.3912 247.328 71.7563C247.3 72.1214 247.104 72.4755 246.749 72.8188C246.519 73.0477 246.295 73.2548 246.088 73.44C245.88 73.6253 245.667 73.8051 245.443 73.9958C245.295 74.1266 245.115 74.192 244.902 74.192C244.689 74.192 244.514 74.1157 244.372 73.9577C244.241 73.816 244.181 73.6525 244.192 73.4564C244.203 73.2602 244.285 73.0967 244.432 72.966C244.563 72.8515 244.722 72.7153 244.908 72.5682C245.093 72.421 245.257 72.2794 245.399 72.1486C245.525 72.0342 245.574 71.9306 245.547 71.8435C245.519 71.7563 245.427 71.7127 245.263 71.7127H243.089V74.5244C243.089 75.151 242.925 75.6142 242.591 75.903C242.258 76.1973 241.778 76.3444 241.138 76.3444L241.133 76.3498ZM242.411 69.86C242.559 69.7837 242.75 69.6911 242.974 69.5766C243.203 69.4622 243.378 69.3696 243.504 69.3042C243.646 69.2388 243.711 69.168 243.695 69.0971C243.684 69.0263 243.597 68.9936 243.438 68.9936H240.745C240.975 69.108 241.248 69.2497 241.554 69.4077C241.86 69.5712 242.144 69.7183 242.411 69.86ZM240.827 67.7785H242.985C242.859 67.6368 242.799 67.4788 242.799 67.2935V66.9611H241.013V67.2935C241.013 67.4733 240.953 67.6368 240.827 67.7785Z" fill="white"></path><path d="M255.188 75.9022C255.03 76.0112 254.861 76.0439 254.675 76.0058C254.489 75.9676 254.347 75.8695 254.249 75.717C254.139 75.5589 254.107 75.39 254.145 75.2102C254.183 75.0304 254.281 74.8833 254.434 74.7797C255.09 74.3602 255.614 73.8479 256.013 73.2485C256.412 72.6491 256.69 71.9844 256.843 71.2487H255.205C255.008 71.5811 254.795 71.8972 254.571 72.1969C254.347 72.4966 254.118 72.7581 253.888 72.9815C253.757 73.1123 253.593 73.1777 253.402 73.1723C253.211 73.1668 253.052 73.1014 252.932 72.9652C252.801 72.8344 252.736 72.6764 252.741 72.4857C252.747 72.295 252.812 72.1424 252.949 72.0062C253.255 71.701 253.533 71.3632 253.784 70.9926C254.036 70.6221 254.26 70.2407 254.451 69.8592C254.642 69.4778 254.784 69.1073 254.882 68.764C254.942 68.5732 255.046 68.4316 255.205 68.3444C255.363 68.2518 255.532 68.23 255.713 68.2844C255.893 68.328 256.035 68.4261 256.128 68.5896C256.221 68.7531 256.243 68.922 256.182 69.1018C256.15 69.2326 256.106 69.3688 256.051 69.5105C255.997 69.6522 255.937 69.7938 255.871 69.941H259.733C259.924 69.941 260.083 70.0009 260.214 70.1262C260.339 70.2516 260.405 70.4096 260.405 70.5948C260.405 70.7801 260.339 70.9272 260.214 71.0526C260.083 71.1779 259.924 71.2378 259.733 71.2378H258.171C257.991 72.2296 257.646 73.1287 257.138 73.9297C256.636 74.7361 255.986 75.39 255.188 75.8913V75.9022Z" fill="white"></path><path d="M274.116 76.1647C273.886 76.1647 273.701 76.1047 273.569 75.9848C273.438 75.865 273.362 75.7015 273.345 75.4944C273.318 75.2983 273.367 75.1293 273.482 74.9877C273.597 74.846 273.761 74.7588 273.968 74.7261C274.241 74.6825 274.411 74.6335 274.482 74.5735C274.553 74.5136 274.585 74.3774 274.585 74.1703V70.6557H270.352C270.139 70.6557 269.975 70.5794 269.866 70.4214V72.4539C269.866 72.9388 269.806 73.3203 269.686 73.5873C269.565 73.8543 269.374 74.0395 269.107 74.1431C268.839 74.2466 268.484 74.2956 268.041 74.2956H267.457C267.02 74.2956 266.665 74.2466 266.397 74.1485C266.129 74.0504 265.933 73.8652 265.813 73.5982C265.692 73.3311 265.632 72.9497 265.632 72.4539V67.7622C265.632 67.5987 265.687 67.4625 265.802 67.3644C265.916 67.2663 266.042 67.2173 266.195 67.2173C266.348 67.2173 266.468 67.2663 266.572 67.3644C266.676 67.4625 266.725 67.5933 266.725 67.7622V72.4048C266.725 72.6119 266.758 72.7645 266.829 72.8571C266.9 72.9497 267.031 73.0097 267.222 73.026V65.9313C267.222 65.757 267.277 65.6262 267.386 65.539C267.495 65.4518 267.615 65.4082 267.746 65.4082C267.888 65.4082 268.009 65.4518 268.112 65.539C268.216 65.6262 268.265 65.757 268.265 65.9313V73.026C268.462 73.0097 268.599 72.9552 268.67 72.8625C268.741 72.7699 268.773 72.6173 268.773 72.4048V67.7622C268.773 67.5987 268.822 67.4625 268.926 67.3644C269.03 67.2663 269.156 67.2173 269.303 67.2173C269.462 67.2173 269.593 67.2663 269.702 67.3644C269.811 67.4625 269.866 67.5933 269.866 67.7622V69.7075C269.975 69.5495 270.133 69.4732 270.352 69.4732H270.516C270.516 69.4732 270.478 69.4242 270.461 69.3969C270.439 69.3751 270.423 69.3424 270.407 69.3097C270.325 69.1463 270.314 68.9774 270.374 68.803C270.434 68.6286 270.543 68.5087 270.702 68.4433C271.04 68.3017 271.346 68.1327 271.619 67.9311C271.892 67.7295 272.111 67.5007 272.28 67.2445H270.789C270.609 67.2445 270.467 67.1846 270.363 67.0702C270.259 66.9557 270.21 66.8195 270.21 66.6615C270.21 66.498 270.259 66.3564 270.363 66.2474C270.467 66.1384 270.609 66.0785 270.789 66.0785H272.641V65.3864C272.641 65.1794 272.706 65.0159 272.832 64.896C272.958 64.7761 273.122 64.7162 273.313 64.7162C273.504 64.7162 273.662 64.7761 273.799 64.896C273.935 65.0159 273.996 65.1794 273.996 65.3864V66.0785H276.044C276.224 66.0785 276.366 66.1329 276.465 66.2474C276.563 66.3618 276.612 66.498 276.612 66.6615C276.612 66.825 276.563 66.9557 276.465 67.0702C276.366 67.1846 276.224 67.2445 276.044 67.2445H274.356C274.711 67.7677 275.257 68.1709 275.995 68.4597C276.153 68.5196 276.257 68.6286 276.317 68.7975C276.377 68.9665 276.361 69.1299 276.279 69.2879C276.246 69.3642 276.197 69.4242 276.131 69.4732H276.503C276.683 69.4732 276.831 69.5332 276.934 69.6476C277.044 69.762 277.098 69.9037 277.098 70.0672C277.098 70.2252 277.044 70.3614 276.934 70.4813C276.825 70.6012 276.683 70.6611 276.503 70.6611H275.957V74.4755C275.957 75.0803 275.809 75.5108 275.509 75.7778C275.214 76.0448 274.749 76.1756 274.121 76.1756L274.116 76.1647ZM272.193 74.4046C271.739 74.4046 271.384 74.361 271.139 74.2738C270.893 74.1867 270.718 74.0286 270.625 73.7943C270.532 73.56 270.483 73.2331 270.483 72.8026C270.483 72.3721 270.532 72.0452 270.625 71.8109C270.718 71.5766 270.893 71.4185 271.139 71.3313C271.384 71.2442 271.739 71.2006 272.193 71.2006C272.646 71.2006 273.001 71.2442 273.247 71.3313C273.493 71.4185 273.668 71.5766 273.761 71.8109C273.853 72.0452 273.903 72.3721 273.903 72.8026C273.903 73.2331 273.853 73.56 273.761 73.7943C273.668 74.0286 273.493 74.1867 273.247 74.2738C272.996 74.361 272.646 74.4046 272.193 74.4046ZM271.494 69.4623H275.143C274.788 69.2716 274.449 69.0318 274.127 68.7376C273.804 68.4433 273.537 68.111 273.318 67.7404C273.111 68.0946 272.848 68.4215 272.532 68.7103C272.215 69.0046 271.865 69.2553 271.494 69.4623ZM272.193 73.3257C272.406 73.3257 272.542 73.2985 272.603 73.2385C272.663 73.1786 272.69 73.0369 272.69 72.8026C272.69 72.5683 272.663 72.4266 272.603 72.3721C272.542 72.3122 272.406 72.2849 272.193 72.2849C271.98 72.2849 271.854 72.3122 271.789 72.3721C271.729 72.4321 271.696 72.5737 271.696 72.8026C271.696 73.0315 271.729 73.1786 271.789 73.2385C271.849 73.2985 271.985 73.3257 272.193 73.3257Z" fill="white"></path><path d="M114.964 24.176V54.5872H110.61V41.03H93.1027V54.5872H88.749V24.176H93.1027V37.2538H110.61V24.176H114.964Z" fill="white"></path><path d="M142.2 48.419L144.467 51.1109C142.419 53.5411 139.24 54.8489 135.41 54.8489C127.965 54.8489 123 49.9393 123 43.0735C123 36.2077 127.878 31.3417 134.586 31.3417C140.9 31.3417 145.822 35.7718 145.953 42.6376L127.615 46.2013C128.79 49.3726 131.663 51.198 135.542 51.198C138.24 51.198 140.507 50.2881 142.206 48.419H142.2ZM127.042 42.8555V43.2915L141.807 40.5124C141.064 37.2103 138.322 34.8672 134.575 34.8672C130.177 34.8672 127.042 38.0386 127.042 42.861V42.8555Z" fill="white"></path><path d="M175.188 31.5596V54.5874H171.184V50.9365C169.311 53.5411 166.35 54.8489 162.952 54.8489C156.201 54.8489 151.279 50.1137 151.279 43.0735C151.279 36.0333 156.201 31.3417 162.952 31.3417C166.219 31.3417 169.092 32.5568 171.01 35.0361V31.5596H175.188ZM171.048 43.0735C171.048 38.1639 167.694 34.9925 163.296 34.9925C158.899 34.9925 155.501 38.1639 155.501 43.0735C155.501 47.9831 158.855 51.198 163.296 51.198C167.738 51.198 171.048 47.9831 171.048 43.0735Z" fill="white"></path><path d="M197.585 31.3467V35.3844C197.236 35.3408 196.93 35.3408 196.629 35.3408C192.144 35.3408 189.359 38.0763 189.359 43.1166V54.5869H185.18V31.5592H189.184V35.428C190.664 32.7362 193.537 31.3467 197.591 31.3467H197.585Z" fill="white"></path><path d="M275.182 48.419L277.449 51.1109C275.4 53.5411 272.221 54.8489 268.392 54.8489C260.946 54.8489 255.981 49.9393 255.981 43.0735C255.981 36.2077 260.859 31.3417 267.567 31.3417C273.882 31.3417 278.804 35.7718 278.935 42.6376L260.597 46.2013C261.771 49.3726 264.645 51.198 268.523 51.198C271.222 51.198 273.489 50.2881 275.187 48.419H275.182ZM260.029 42.8555V43.2915L274.794 40.5124C274.051 37.2103 271.309 34.8672 267.562 34.8672C263.164 34.8672 260.029 38.0386 260.029 42.861V42.8555Z" fill="white"></path><path d="M307.951 31.5596V54.5874H303.947V50.9365C302.073 53.5411 299.113 54.8489 295.715 54.8489C288.963 54.8489 284.042 50.1137 284.042 43.0735C284.042 36.0333 288.963 31.3417 295.715 31.3417C298.982 31.3417 301.855 32.5568 303.772 35.0361V31.5596H307.951ZM303.811 43.0735C303.811 38.1639 300.457 34.9925 296.059 34.9925C291.662 34.9925 288.264 38.1639 288.264 43.0735C288.264 47.9831 291.618 51.198 296.059 51.198C300.5 51.198 303.811 47.9831 303.811 43.0735Z" fill="white"></path><path d="M340 43.0731C340 50.1568 335.078 54.8485 328.326 54.8485C325.06 54.8485 322.187 53.5897 320.269 51.1104V63.0166H316.09V31.5646H320.094V35.2155C321.968 32.6545 324.929 31.3467 328.326 31.3467C335.078 31.3467 340 36.0383 340 43.0785V43.0731ZM335.772 43.0731C335.772 38.207 332.418 34.9921 327.977 34.9921C323.536 34.9921 320.225 38.207 320.225 43.0731C320.225 47.9391 323.579 51.1976 327.977 51.1976C332.374 51.1976 335.772 47.9827 335.772 43.0731Z" fill="white"></path><path d="M218.043 53.6123C216.677 54.5495 214.907 54.8492 213.039 54.8492C208.379 54.8492 205.725 52.2881 205.725 47.6346V26.5195H209.903V31.5599H216.524V34.9928H209.903V47.4603C209.903 49.9341 211.165 51.3291 213.52 51.3291C214.738 51.3291 215.656 50.9967 216.289 50.588L218.048 53.6123H218.043Z" fill="white"></path><path d="M245.497 54.7774C240.488 54.7774 236.724 53.5514 233.561 51.0012L235.965 48.0315C238.581 50.1348 242.623 52.042 252.806 50.2111L253.483 53.9655C250.5 54.4995 247.857 54.7774 245.497 54.7774Z" fill="#F8B62D"></path><path d="M228.574 54.5539L226.286 51.497C226.684 51.2027 226.952 51.012 227.176 50.8594C227.602 50.5652 227.799 50.4289 228.591 49.6933C232.322 46.2386 242.996 31.9294 241.532 27.0252C241.428 26.6874 241.193 25.8918 239.461 25.5976C236.228 25.0472 233.95 29.0959 233.119 30.8614C230.486 36.4576 230.361 43.3234 232.109 44.8164L229.623 47.7153C226.641 45.1706 225.947 37.1387 229.662 29.243C232.202 23.8375 236.009 21.1402 240.111 21.8377C243.482 22.4099 244.738 24.3824 245.203 25.9409C247.65 34.1363 232.874 50.9466 231.202 52.4941C230.257 53.3714 229.924 53.6112 229.372 53.9926C229.175 54.1289 228.935 54.2978 228.585 54.5539H228.574Z" fill="#F8B62D"></path><path d="M24.8646 72.9671L28.9888 69.8448C28.9888 69.8448 28.9779 69.8394 28.9724 69.8339C45.0652 57.3011 65.7738 37.5373 67.8714 21.4844C68.7181 14.9946 66.9865 9.0769 61.8735 5.0337C56.5366 0.80523 50.424 -0.197397 44.5572 0.892415C34.3039 2.79959 26.4378 12.4499 23.193 17.0761C20.6256 15.0218 16.1518 12.4444 11.23 14.1554C5.86576 16.0245 2.11297 20.3619 0.67631 26.3668C-2.03859 37.679 3.59879 53.4104 14.3819 64.6137C16.0316 66.3302 17.8506 67.9376 19.7953 69.447L23.7611 66.4446C21.5488 64.8262 19.544 63.1152 17.8179 61.3279C8.09448 51.2199 2.94874 37.303 5.30857 27.4729C6.39016 22.9666 8.90841 19.9968 12.8032 18.64C13.3823 18.4384 13.9558 18.3512 14.5294 18.3512C18.3423 18.3512 21.8055 22.2473 21.8383 22.2854L24.007 24.7865L25.6949 21.9367C25.7768 21.795 34.2875 7.622 45.4476 5.55681C49.9596 4.7231 54.652 5.37699 58.9183 8.74996C62.6765 11.7251 63.7745 16.0789 63.1518 20.8632C61.2617 35.2869 40.6186 54.8054 25.0612 66.8642L24.7389 67.1148C24.728 67.1203 24.7226 67.1312 24.7116 67.1366L19.9647 70.7112L19.9537 70.6949C15.0866 74.215 11.1481 76.6779 9.13784 77.5552L11.0443 81.909C13.3167 80.9227 18.4952 77.6642 24.8591 72.9562C24.8591 72.9562 24.8646 72.9562 24.87 72.9617L24.8646 72.9671Z" fill="#F8B62D"></path><path d="M79.0419 76.0905C62.9546 81.7575 43.9613 78.0739 30.0973 70.467L25.9512 73.6112C36.6469 79.9266 49.8609 83.4849 62.3702 83.4849C68.7941 83.4849 75.0269 82.5476 80.6315 80.575L79.0419 76.0959V76.0905Z" fill="#F8B62D"></path></svg> 